<?xml version="1.0" standalone="no"?>
<!DOCTYPE svg PUBLIC "-//W3C//DTD SVG 20010904//EN"
 "http://www.w3.org/TR/2001/REC-SVG-20010904/DTD/svg10.dtd">
<svg version="1.0" xmlns="http://www.w3.org/2000/svg"
 width="1920.000000pt" height="1080.000000pt" viewBox="0 0 1920.000000 1080.000000"
 preserveAspectRatio="xMidYMid meet">

<g transform="translate(0.000000,1080.000000) scale(0.100000,-0.100000)"
fill="#000000" stroke="none">
<path d="M7020 9610 c-19 -10 -40 -16 -47 -13 -51 20 -426 -286 -543 -442 -21
-27 -60 -74 -88 -103 -28 -29 -68 -83 -88 -120 -20 -37 -56 -96 -79 -132 -23
-36 -48 -82 -56 -102 -7 -21 -16 -38 -19 -38 -3 0 -7 -15 -8 -32 -1 -18 -7
-48 -13 -65 -6 -18 -9 -43 -8 -55 2 -13 0 -29 -4 -35 -5 -7 -5 -19 0 -25 4 -7
6 -23 4 -35 -3 -31 28 -182 45 -213 7 -14 29 -63 49 -110 20 -47 41 -89 46
-94 5 -6 9 -16 9 -23 0 -7 10 -24 21 -37 12 -14 27 -33 33 -44 39 -65 59 -90
81 -102 14 -7 25 -19 25 -26 0 -12 62 -64 78 -64 5 0 16 -7 23 -16 7 -9 36
-29 64 -45 27 -16 70 -47 94 -68 l44 -39 -41 -41 c-22 -23 -62 -67 -88 -99
-49 -58 -130 -148 -190 -213 -19 -19 -34 -41 -34 -47 0 -7 -4 -12 -9 -12 -5 0
-30 -29 -56 -65 -25 -36 -56 -76 -68 -90 -12 -13 -37 -42 -55 -63 -47 -56
-112 -122 -121 -122 -4 0 -22 -18 -39 -40 -34 -42 -170 -151 -237 -190 -22
-12 -56 -34 -76 -47 -20 -13 -46 -25 -57 -28 -12 -2 -28 -7 -35 -12 -6 -4 -14
-8 -17 -9 -7 -1 -61 -24 -82 -35 -9 -5 -57 -16 -105 -25 -48 -10 -95 -23 -103
-29 -8 -7 -29 -16 -46 -19 -18 -4 -40 -16 -50 -27 -10 -11 -33 -29 -51 -40
-18 -11 -33 -27 -33 -35 0 -8 -4 -14 -9 -14 -14 0 -56 -71 -79 -133 -58 -155
-4 -431 127 -642 10 -16 34 -55 52 -85 102 -166 172 -245 257 -289 30 -16 313
-14 467 3 22 3 119 8 215 11 96 4 231 9 300 11 378 16 650 -5 892 -67 46 -11
92 -22 103 -23 12 -1 25 -5 30 -8 6 -3 26 -9 45 -13 34 -7 185 -47 247 -66 66
-20 261 -43 352 -41 85 2 97 0 118 -20 13 -12 23 -25 23 -29 0 -12 44 -78 53
-79 4 0 5 12 1 28 l-6 27 21 -25 c11 -14 21 -29 21 -33 0 -5 7 -15 15 -24 11
-11 14 -25 9 -51 -6 -32 -5 -35 15 -29 15 4 26 -2 42 -24 11 -16 25 -27 30
-24 5 3 12 -12 15 -35 4 -25 12 -40 21 -40 17 0 133 -111 133 -128 0 -6 9 -13
19 -17 11 -3 33 -21 49 -40 17 -18 43 -40 59 -48 15 -8 63 -49 105 -91 43 -42
82 -76 86 -76 5 0 19 -11 32 -25 14 -15 35 -25 52 -25 15 0 28 -5 28 -11 0 -5
-6 -7 -12 -3 -10 6 -10 4 0 -8 7 -9 27 -22 45 -29 18 -7 40 -24 50 -36 10 -13
27 -23 38 -23 10 0 18 -5 16 -12 -1 -6 18 -17 42 -24 23 -7 55 -25 69 -39 19
-19 27 -22 33 -13 6 9 9 8 14 -4 4 -9 21 -22 38 -29 18 -7 34 -16 37 -19 3 -3
32 -16 65 -29 33 -12 69 -28 80 -34 70 -39 192 -97 205 -97 8 0 33 -11 55 -25
22 -13 47 -25 55 -25 8 0 28 -7 44 -15 15 -8 33 -15 38 -15 5 0 44 -16 85 -37
42 -20 90 -38 106 -39 16 -2 35 -10 41 -17 16 -19 176 -64 266 -74 25 -3 52
-11 61 -19 9 -8 49 -18 90 -24 41 -5 101 -14 134 -20 33 -5 79 -10 103 -10 23
0 42 -4 42 -8 0 -10 396 -9 406 1 10 9 54 9 54 0 0 -5 22 -6 50 -5 27 2 50 7
50 11 0 4 17 7 38 8 58 1 202 28 372 69 36 9 81 18 100 21 19 3 40 9 46 14 6
5 33 12 59 16 33 4 49 11 52 24 5 19 32 29 81 29 22 0 32 5 32 15 0 8 9 15 19
15 11 0 23 5 26 10 3 6 16 10 27 10 12 0 29 7 39 16 10 9 24 14 31 11 23 -8
33 -7 33 4 0 12 45 48 61 49 6 0 23 11 38 25 15 14 31 25 35 25 5 0 14 7 21
14 6 8 31 24 55 36 50 24 115 80 115 99 0 7 4 10 9 6 5 -3 18 5 28 19 10 13
29 26 41 30 12 4 22 14 22 22 0 8 5 12 10 9 6 -4 15 7 21 25 6 17 24 37 41 46
16 9 28 18 25 21 -5 4 0 11 51 67 12 14 22 30 22 36 0 5 5 10 10 10 6 0 10 5
10 11 0 10 54 82 89 119 8 8 20 28 27 45 7 16 22 38 33 47 12 10 21 26 21 37
0 10 7 21 15 25 8 3 15 12 15 21 0 8 16 38 35 66 19 28 35 56 35 61 0 5 11 24
24 41 13 18 32 52 42 77 9 25 26 57 36 72 10 14 18 33 18 40 0 8 9 23 20 33
11 10 20 24 20 32 0 13 71 169 111 244 10 20 19 44 19 53 0 8 8 31 19 49 10
18 22 60 26 92 7 63 19 95 36 95 6 0 8 4 5 9 -4 5 -2 21 4 35 7 18 6 26 -1 26
-8 0 -8 4 -1 13 14 18 21 92 21 262 1 159 -2 211 -12 235 -6 14 -24 182 -31
292 -2 26 -7 64 -11 85 -5 21 -7 46 -6 56 1 10 -5 35 -14 54 -10 20 -25 64
-35 98 -10 34 -23 72 -29 84 -7 11 -9 21 -6 21 3 0 -1 13 -10 30 -8 16 -15 38
-15 49 0 11 -6 26 -12 33 -7 7 -20 26 -28 43 -26 52 -180 278 -228 334 -129
152 -345 345 -355 319 -4 -10 -6 -10 -6 0 -1 15 -59 68 -105 97 -18 11 -46 30
-62 43 -51 41 -137 92 -234 140 -52 25 -120 60 -151 78 -64 36 -265 130 -322
150 -21 7 -52 23 -68 34 -16 12 -29 19 -29 16 0 -3 -37 12 -82 33 -46 21 -108
48 -138 61 -30 13 -82 35 -115 50 -33 16 -94 38 -135 51 -41 13 -77 27 -80 31
-3 3 -19 10 -35 13 -45 11 -105 31 -155 53 -25 11 -85 31 -135 43 -49 13 -92
26 -95 30 -4 5 -105 40 -275 94 -22 7 -67 18 -100 25 -33 7 -76 20 -95 30 -59
30 -215 80 -263 84 -25 3 -63 14 -85 25 -22 11 -60 23 -84 26 -23 4 -61 12
-83 20 -22 7 -89 23 -150 35 -60 13 -146 35 -190 50 -131 46 -228 70 -259 64
-18 -3 -32 0 -40 10 -6 9 -73 28 -161 46 -82 18 -170 39 -195 47 -25 8 -76 20
-115 28 -38 7 -83 18 -99 24 -15 6 -60 16 -99 21 -39 6 -75 14 -81 19 -6 5
-72 21 -146 36 -194 38 -360 87 -360 106 0 5 -9 9 -19 9 -19 0 -221 109 -251
135 -8 8 -39 25 -67 40 -29 14 -58 35 -63 46 -21 38 -171 126 -270 159 -78 25
-116 31 -210 35 -97 3 -120 1 -150 -15z m281 -51 c100 -25 168 -57 259 -123
146 -106 239 -166 361 -231 102 -54 155 -75 302 -116 98 -28 201 -54 230 -59
50 -7 128 -25 247 -57 30 -7 123 -29 205 -47 83 -19 161 -39 175 -45 14 -5 72
-19 130 -31 58 -11 143 -31 190 -45 191 -56 398 -107 448 -111 29 -2 71 -13
95 -23 58 -26 95 -39 142 -50 187 -45 462 -124 513 -147 29 -13 74 -29 100
-34 26 -6 80 -22 121 -36 41 -14 82 -27 90 -29 77 -18 195 -54 200 -62 3 -6
33 -18 66 -28 33 -9 87 -28 120 -42 33 -13 67 -26 75 -28 33 -8 154 -57 174
-70 11 -8 31 -15 43 -15 13 0 23 -4 23 -9 0 -5 12 -12 28 -16 49 -12 406 -155
452 -181 25 -14 93 -47 152 -74 58 -26 162 -80 230 -119 68 -40 128 -75 135
-79 76 -44 306 -215 376 -279 49 -46 93 -80 98 -77 5 3 9 0 9 -6 0 -7 31 -43
70 -81 38 -38 101 -118 139 -177 39 -59 83 -125 99 -147 36 -49 63 -100 73
-140 8 -35 66 -206 84 -250 19 -46 67 -394 60 -432 -3 -19 -6 -62 -6 -96 1
-117 -35 -339 -62 -385 -19 -32 -18 -50 2 -38 14 9 51 94 51 117 0 10 5 21 10
24 13 8 13 15 -5 -109 -9 -57 -25 -128 -35 -157 -11 -30 -20 -64 -20 -76 0
-12 -4 -23 -9 -25 -25 -9 -221 -324 -221 -354 0 -31 -91 -195 -98 -176 -10 30
-49 -4 -40 -34 9 -32 -122 -165 -302 -310 -269 -216 -658 -379 -1040 -437
-113 -18 -217 -29 -185 -21 11 3 52 15 90 26 83 25 69 22 178 44 84 16 107 29
70 36 -10 2 -43 0 -73 -5 -30 -5 -75 -11 -100 -14 -58 -6 -85 -10 -85 -13 0
-1 -9 -3 -20 -5 -11 -2 -49 -8 -85 -15 -78 -14 -50 -13 -295 -7 -149 3 -209 8
-237 20 -39 16 -48 14 -48 -14 0 -17 73 -54 89 -45 4 3 13 1 21 -4 22 -14
-209 -3 -310 14 -47 8 -107 17 -135 21 -27 3 -75 14 -105 24 -99 33 -224 70
-285 86 -33 9 -112 30 -175 46 -223 59 -388 116 -528 184 -65 31 -149 91 -112
80 13 -4 30 -14 38 -22 8 -8 21 -12 28 -9 8 3 14 1 14 -4 0 -5 11 -12 25 -16
14 -3 25 -10 25 -15 0 -5 10 -9 23 -9 12 0 33 -9 47 -20 14 -11 32 -20 41 -20
8 0 19 -4 25 -8 5 -5 32 -17 59 -26 69 -24 79 -28 84 -26 2 1 7 -2 10 -7 6 -9
109 -43 129 -43 7 0 12 4 12 8 0 7 -25 20 -99 49 -19 7 -58 24 -87 38 -29 14
-59 25 -66 25 -7 0 -29 10 -48 22 -36 22 -113 64 -240 130 -41 21 -85 48 -98
59 -13 11 -34 24 -48 29 -13 5 -24 14 -24 20 0 5 -7 10 -15 10 -8 0 -15 5 -15
10 0 6 -6 10 -14 10 -8 0 -17 8 -20 18 -4 11 -18 25 -31 32 -14 7 -23 15 -20
18 5 5 -9 19 -60 56 -22 17 -43 35 -47 40 -16 24 -192 196 -200 196 -5 0 -23
13 -41 30 -74 68 -113 100 -122 100 -6 0 -40 30 -75 66 -55 57 -66 65 -82 55
-10 -6 -18 -7 -18 -3 0 5 -12 23 -27 39 -16 16 -45 54 -66 82 -29 41 -35 56
-26 67 8 10 4 23 -19 58 -48 71 -77 111 -83 116 -4 3 -19 29 -34 59 -15 30
-34 61 -42 70 -9 8 -24 35 -35 60 -18 44 -125 220 -139 231 -3 3 -16 24 -28
47 -11 23 -25 44 -31 48 -5 3 -10 14 -10 23 0 9 -9 28 -20 42 l-20 25 0 -23
c0 -13 11 -47 23 -75 13 -29 32 -72 43 -97 24 -59 54 -110 64 -110 4 0 10 -8
13 -17 2 -10 8 -27 12 -38 4 -11 -13 7 -38 40 -26 33 -47 63 -47 68 0 4 -29
52 -65 106 -36 55 -65 102 -65 105 0 3 -15 29 -34 59 -19 29 -52 86 -73 127
-22 41 -57 104 -77 139 -20 36 -46 87 -58 113 -11 26 -24 48 -29 48 -5 0 -9 5
-9 12 0 58 -241 434 -263 411 -3 -3 -3 4 0 16 3 14 1 21 -8 21 -8 0 -34 17
-58 38 -35 30 -44 45 -44 70 0 24 -5 32 -18 32 -9 0 -19 -6 -21 -12 -3 -9 -10
-7 -24 6 -14 15 -19 34 -19 78 0 32 0 58 -2 58 -13 0 -33 -15 -33 -25 0 -7 -7
-18 -15 -25 -27 -22 -104 57 -105 108 0 20 -2 21 -21 11 -35 -18 -63 18 -63
81 0 27 -1 50 -2 50 -14 0 -34 -15 -34 -26 0 -18 -34 -18 -48 -1 -19 22 -43
107 -37 127 11 34 -25 24 -36 -10 l-11 -30 -38 43 c-22 23 -42 54 -45 70 -5
19 -13 27 -28 28 -14 0 -39 21 -69 59 -27 32 -48 61 -48 66 0 4 -15 25 -33 48
-19 23 -42 55 -51 71 -17 30 -17 30 1 6 62 -85 145 -163 157 -150 3 2 -9 20
-26 39 -17 19 -42 51 -57 70 -14 19 -29 37 -32 40 -4 3 -23 37 -44 75 -20 39
-43 75 -51 81 -8 6 -14 15 -14 19 0 5 -11 22 -24 40 -51 66 -100 164 -166 330
-10 24 -30 86 -30 92 0 3 47 -55 104 -129 57 -73 113 -142 125 -152 11 -11 21
-23 21 -29 0 -5 16 -27 35 -48 19 -22 35 -44 35 -50 0 -25 194 -235 310 -336
41 -35 91 -79 110 -97 19 -18 87 -78 151 -133 211 -184 445 -452 521 -596 28
-54 91 -158 140 -230 147 -218 190 -284 304 -470 60 -98 125 -198 144 -222 20
-25 53 -79 75 -120 21 -41 51 -87 66 -102 16 -16 29 -33 29 -39 0 -11 220
-348 282 -434 18 -24 35 -49 37 -55 8 -21 177 -231 201 -250 29 -23 65 -60
135 -141 73 -84 265 -247 380 -322 55 -36 159 -94 230 -129 72 -35 141 -70
155 -77 14 -8 62 -28 107 -46 46 -17 85 -36 88 -41 4 -5 13 -9 22 -9 19 0 142
-48 160 -62 7 -5 72 -25 145 -43 73 -18 162 -41 197 -50 35 -9 78 -15 95 -12
17 3 65 -4 106 -14 90 -23 376 -38 620 -33 288 6 745 91 1025 192 268 96 354
145 556 318 105 90 104 89 234 259 50 65 113 141 140 169 63 65 133 168 117
174 -7 2 -12 15 -12 28 0 27 -20 34 -20 7 -1 -10 -16 -36 -35 -58 -32 -38 -36
-39 -57 -26 -13 8 -45 26 -72 40 -86 45 -102 55 -148 94 -25 20 -50 37 -55 37
-6 0 -21 10 -35 23 -65 58 -155 124 -217 159 -31 17 -58 34 -61 37 -3 3 -24
19 -48 35 -49 34 -92 74 -172 161 -30 33 -58 59 -62 58 -4 -2 -8 2 -8 7 0 6
-20 32 -43 58 -24 26 -52 61 -62 78 -16 28 -16 33 -1 62 10 19 16 56 16 93 0
84 -29 143 -86 178 -42 25 -43 27 -44 79 0 55 -12 84 -45 114 -11 9 -17 17
-14 18 4 0 0 28 -8 63 -8 34 -18 80 -23 102 -17 78 -56 171 -92 225 -58 87
-111 152 -132 164 -11 6 -31 22 -45 35 -53 48 -285 184 -341 200 -32 9 -126
42 -145 51 -91 43 -290 82 -346 67 -34 -8 -37 -12 -28 -29 6 -11 8 -22 5 -25
-3 -4 -1 -12 5 -20 8 -9 8 -13 1 -13 -6 0 -16 9 -22 20 -13 24 -61 50 -92 50
-30 0 -158 66 -258 131 -67 44 -78 56 -87 92 -14 50 -48 103 -85 131 -35 25
-115 27 -150 4 -24 -16 -26 -15 -57 12 -17 16 -31 36 -31 45 0 16 30 16 115
-2 17 -3 40 -7 52 -9 11 -1 29 -5 40 -8 10 -3 59 -10 108 -16 50 -6 110 -14
135 -18 59 -9 397 -9 433 0 30 7 89 41 112 65 23 22 19 90 -5 105 -11 7 -20
18 -20 25 0 7 -6 13 -13 13 -8 0 -21 8 -31 19 -10 11 -27 17 -44 15 -15 -2
-19 -1 -8 2 16 5 12 11 -25 33 -56 34 -195 85 -209 76 -6 -4 -9 -1 -8 6 2 6
-10 16 -27 21 -16 5 -58 18 -93 29 -34 12 -73 19 -87 17 -13 -3 -23 -1 -22 5
1 5 -36 17 -83 27 -47 10 -128 28 -180 40 -52 12 -120 26 -150 32 -30 5 -77
16 -105 24 -27 7 -70 16 -95 20 -51 6 -225 41 -285 56 -22 5 -60 14 -85 18
-97 19 -226 49 -250 58 -14 5 -29 10 -35 11 -37 4 -85 16 -112 28 -18 7 -43
13 -55 13 -13 0 -33 10 -44 23 -12 12 -32 27 -45 34 -56 26 -98 43 -108 43 -7
0 -22 6 -34 14 -26 17 -93 35 -157 42 -25 3 -58 7 -75 9 -16 2 -57 7 -90 10
-33 4 -73 13 -90 20 -27 12 -57 18 -133 30 -13 2 -28 8 -35 13 -7 5 -31 13
-54 17 -24 4 -45 11 -48 15 -3 5 -13 6 -22 3 -9 -4 -21 1 -29 11 -6 10 -16 17
-21 16 -28 -5 -108 17 -169 46 -40 19 -79 34 -88 34 -9 0 -24 4 -34 9 -9 6
-50 26 -90 46 -69 34 -89 44 -137 69 -126 65 -179 89 -272 124 -160 59 -234
75 -343 71 -63 -3 -95 -8 -98 -16 -2 -7 -14 -13 -26 -13 -62 0 -136 -51 -163
-111 -9 -20 -9 -30 0 -39 9 -10 9 -11 -3 -5 -31 17 -125 89 -137 104 -10 14
-14 13 -35 -7 l-23 -23 55 -49 c30 -28 61 -50 68 -50 7 0 10 -4 7 -10 -3 -5 6
-12 20 -16 13 -3 22 -10 20 -15 -3 -5 6 -11 20 -15 14 -3 22 -11 18 -17 -3 -6
-1 -7 6 -3 16 10 41 -12 34 -30 -3 -7 2 -16 10 -20 9 -3 14 -11 11 -18 -3 -7
2 -19 11 -26 8 -7 15 -18 15 -25 0 -6 9 -20 20 -30 11 -10 20 -23 20 -29 0 -7
13 -27 30 -46 16 -19 29 -40 30 -45 0 -6 13 -25 29 -42 16 -18 39 -47 52 -65
27 -39 45 -58 54 -58 3 0 17 -11 30 -24 13 -13 45 -34 72 -47 26 -12 51 -27
55 -33 4 -6 8 -7 8 -3 0 5 6 5 13 0 15 -10 110 -32 161 -37 21 -2 42 -10 46
-17 5 -6 16 -9 25 -5 10 3 24 1 33 -6 8 -7 18 -12 21 -11 3 1 22 -2 41 -7 19
-5 63 -11 97 -13 39 -3 68 -11 78 -21 9 -9 21 -16 26 -16 9 0 21 -8 54 -37 7
-7 17 -13 21 -13 4 0 35 -18 70 -40 35 -22 67 -40 72 -40 5 0 17 -10 28 -21
10 -12 45 -38 78 -59 46 -29 69 -54 110 -117 28 -45 110 -143 185 -221 73 -78
140 -150 147 -160 7 -11 30 -68 50 -128 45 -135 94 -245 157 -350 26 -45 61
-123 77 -174 16 -50 33 -97 38 -103 5 -7 17 -34 26 -62 10 -27 31 -77 46 -110
16 -33 40 -85 54 -115 14 -30 31 -64 38 -75 48 -73 65 -103 75 -125 6 -14 31
-53 57 -86 25 -34 46 -66 46 -71 0 -4 27 -38 60 -75 33 -36 60 -69 60 -73 0
-16 163 -185 178 -185 19 0 62 -39 62 -56 0 -14 104 -88 203 -144 34 -19 82
-50 106 -67 24 -18 50 -33 58 -33 8 0 33 -11 56 -24 23 -13 65 -32 92 -41 28
-10 55 -23 60 -29 16 -18 243 -126 263 -126 7 0 12 -4 12 -10 0 -10 182 -70
214 -70 12 0 43 -9 71 -19 64 -25 276 -50 385 -46 154 5 263 15 274 24 6 5 22
9 36 9 14 1 54 8 90 16 36 9 82 16 102 16 21 0 54 9 75 20 21 11 61 21 88 23
60 5 250 84 317 133 26 18 54 31 61 28 8 -3 29 8 47 25 19 17 37 28 42 25 5
-3 23 5 41 18 18 13 51 32 74 43 24 11 43 23 43 28 0 10 -18 9 -25 -3 -3 -5
-13 -10 -22 -10 -9 0 -32 -10 -52 -22 -20 -13 -38 -23 -41 -24 -31 -6 -209
-95 -217 -109 -7 -11 -35 -19 -95 -28 -10 -1 -26 -9 -36 -18 -21 -18 -140 -52
-153 -43 -5 2 -16 1 -26 -4 -21 -11 -59 -27 -88 -37 -27 -9 -183 -36 -215 -37
-14 0 -61 -7 -105 -15 -132 -22 -394 -16 -545 14 -69 13 -134 28 -145 33 -11
4 -41 17 -67 29 -26 11 -65 26 -87 33 -23 7 -41 16 -41 19 0 4 -24 16 -52 29
-89 37 -142 61 -158 71 -37 23 -101 50 -130 53 -17 2 -36 8 -42 14 -8 8 -4 9
13 5 13 -3 22 -4 19 -1 -10 12 -203 108 -214 108 -7 0 -24 12 -38 28 -40 42
-80 74 -109 86 -14 6 -38 26 -53 44 -15 17 -34 32 -42 32 -7 0 -18 9 -24 20
-6 11 -17 20 -24 20 -15 0 -136 117 -136 132 0 20 -62 88 -81 88 -12 0 -16 5
-13 15 4 9 -19 45 -60 94 -36 43 -66 83 -66 89 0 12 -97 159 -110 167 -6 4 -8
11 -5 16 4 5 -3 22 -14 38 -12 16 -21 33 -21 37 0 4 -7 16 -17 26 -20 22 -65
126 -66 153 0 11 -5 23 -10 26 -6 4 -15 23 -22 43 -12 35 -12 35 59 -31 71
-66 200 -166 257 -200 27 -16 30 -22 24 -51 -3 -18 -1 -58 5 -89 23 -108 132
-183 267 -183 51 0 53 -1 72 -37 41 -80 139 -155 236 -182 31 -8 45 -20 63
-51 12 -22 40 -52 61 -66 22 -14 45 -39 51 -55 32 -77 141 -169 227 -190 35
-9 50 -21 74 -55 17 -25 41 -52 55 -60 13 -9 24 -22 24 -29 0 -22 52 -77 87
-91 40 -17 148 -18 228 -1 46 9 73 9 115 0 30 -6 76 -12 101 -12 33 -1 51 -7
65 -22 59 -65 194 -95 297 -65 67 20 134 77 143 124 7 35 4 35 106 -12 41 -19
66 -24 85 -20 27 7 95 49 138 85 11 10 31 20 45 24 21 5 27 1 37 -25 8 -20 23
-35 48 -46 34 -14 40 -13 73 3 23 11 43 31 52 51 14 32 17 33 60 28 108 -12
194 36 180 100 -4 18 -10 36 -14 42 -3 5 1 26 9 46 27 65 13 159 -31 203 -14
14 -22 28 -19 31 3 4 9 1 13 -5 10 -15 100 -119 140 -161 17 -19 32 -39 32
-45 0 -5 21 -30 48 -55 26 -24 42 -42 35 -38 -16 9 -89 -28 -96 -49 -9 -21 6
-19 28 5 10 11 33 22 51 26 19 3 37 10 40 15 3 5 24 -9 47 -31 22 -22 47 -40
54 -40 7 0 13 -4 13 -10 0 -12 68 -80 80 -80 6 0 10 -4 10 -8 0 -5 18 -16 40
-26 22 -10 40 -22 40 -27 0 -5 7 -9 15 -9 8 0 15 -4 15 -9 0 -5 8 -12 18 -15
11 -4 25 -18 33 -32 7 -15 23 -30 34 -35 23 -11 82 -51 106 -72 9 -8 30 -20
47 -28 18 -8 32 -17 32 -21 0 -3 24 -14 53 -23 28 -9 63 -24 76 -34 l23 -18
-36 -49 c-20 -27 -42 -56 -49 -64 -6 -8 -16 -22 -22 -31 -30 -50 -121 -156
-205 -240 -116 -117 -247 -215 -360 -270 -47 -23 -106 -53 -131 -65 -26 -13
-53 -24 -62 -24 -8 0 -36 -8 -63 -19 -102 -39 -180 -61 -215 -61 -20 0 -42 -7
-49 -15 -7 -8 -27 -15 -45 -15 -17 0 -65 -9 -106 -19 -41 -11 -127 -27 -190
-36 -62 -9 -132 -20 -154 -25 -22 -5 -42 -5 -45 0 -3 4 -68 2 -145 -5 -107
-11 -430 -13 -430 -4 0 1 -52 7 -115 14 -132 15 -360 51 -405 64 -280 82 -366
112 -471 162 -22 10 -46 19 -53 19 -7 0 -25 6 -39 14 -15 8 -54 27 -87 41
-105 47 -192 92 -251 132 -31 21 -82 53 -112 72 -31 19 -67 44 -81 56 -14 12
-73 63 -131 112 -143 123 -347 347 -436 478 -26 39 -61 87 -77 109 -54 68 -76
100 -90 131 -8 17 -24 39 -35 51 -11 11 -30 41 -43 65 -32 59 -118 198 -143
231 -12 14 -41 61 -66 102 -69 116 -254 399 -274 419 -10 9 -15 17 -12 17 13
0 -225 376 -289 455 -18 22 -65 94 -104 160 -40 66 -89 139 -109 162 -21 23
-57 67 -82 97 -50 61 -387 391 -519 507 -193 170 -346 335 -427 461 -24 36
-78 108 -122 160 -98 116 -131 166 -143 215 -9 39 5 108 21 98 13 -8 33 23 26
41 -17 44 234 320 446 490 64 52 120 99 123 104 8 12 122 67 180 86 49 15 140
9 246 -17z m-298 -286 c-7 -2 -19 -2 -25 0 -7 3 -2 5 12 5 14 0 19 -2 13 -5z
m194 1 c-3 -3 -12 -4 -19 -1 -8 3 -5 6 6 6 11 1 17 -2 13 -5z m1206 -521 c-7
-2 -19 -2 -25 0 -7 3 -2 5 12 5 14 0 19 -2 13 -5z m54 -9 c-3 -3 -12 -4 -19
-1 -8 3 -5 6 6 6 11 1 17 -2 13 -5z m236 -41 c-7 -2 -21 -2 -30 0 -10 3 -4 5
12 5 17 0 24 -2 18 -5z m200 -20 c-7 -2 -19 -2 -25 0 -7 3 -2 5 12 5 14 0 19
-2 13 -5z m-2634 -255 c6 -18 7 -28 2 -23 -10 12 -25 55 -18 55 3 0 10 -15 16
-32z m35 -74 c3 -8 2 -12 -4 -9 -6 3 -10 10 -10 16 0 14 7 11 14 -7z m40 -70
c3 -8 2 -12 -4 -9 -6 3 -10 10 -10 16 0 14 7 11 14 -7z m1767 -23 c19 -4 40
-10 46 -14 10 -7 82 -15 153 -19 25 -1 47 -5 50 -9 7 -10 160 -30 172 -22 7 3
8 1 4 -5 -10 -16 7 -15 23 1 11 10 13 10 7 0 -5 -10 6 -13 41 -14 72 -2 117
-7 160 -18 21 -5 60 -8 87 -7 66 5 87 -3 50 -19 -19 -8 -37 -9 -53 -3 -18 6
-48 1 -115 -21 -74 -24 -120 -31 -241 -39 l-150 -10 -83 47 c-46 25 -93 55
-105 66 -12 11 -25 19 -29 18 -5 -2 -8 4 -8 12 0 8 -6 15 -13 15 -8 0 -22 9
-32 20 -10 11 -24 20 -32 20 -7 0 -13 4 -13 9 0 6 10 7 23 5 12 -3 38 -9 58
-13z m-1731 -31 c0 -5 -2 -10 -4 -10 -3 0 -8 5 -11 10 -3 6 -1 10 4 10 6 0 11
-4 11 -10z m38 -55 c6 -14 10 -25 8 -25 -2 0 -11 11 -20 25 -9 14 -13 25 -8
25 5 0 14 -11 20 -25z m2715 -32 c-7 -2 -19 -2 -25 0 -7 3 -2 5 12 5 14 0 19
-2 13 -5z m116 -19 c9 -8 -75 -3 -88 5 -8 5 5 7 35 4 27 -3 51 -7 53 -9z
m-2782 -11 c7 -10 18 -26 24 -37 17 -28 -6 -11 -31 24 -23 32 -17 42 7 13z
m2903 -13 c11 -8 7 -9 -15 -4 -37 8 -45 14 -19 14 10 0 26 -5 34 -10z m113 -7
c-7 -2 -19 -2 -25 0 -7 3 -2 5 12 5 14 0 19 -2 13 -5z m65 -10 c-10 -2 -26 -2
-35 0 -10 3 -2 5 17 5 19 0 27 -2 18 -5z m167 -33 c3 -6 -1 -7 -9 -4 -18 7
-21 14 -7 14 6 0 13 -4 16 -10z m-501 -32 c23 -38 -35 -78 -61 -42 -17 23 -16
29 3 49 20 19 43 16 58 -7z m-440 -34 c9 -8 16 -22 16 -30 0 -15 -35 -54 -48
-54 -18 0 -52 33 -52 50 0 24 26 50 50 50 10 0 26 -7 34 -16z m2422 -60 c-19
-19 -21 -11 -4 16 7 11 14 16 16 10 2 -5 -4 -17 -12 -26z m-1546 -54 c-11 -57
3 -131 35 -187 13 -25 19 -43 12 -41 -22 8 -58 87 -64 140 -3 29 0 73 7 97 15
55 21 50 10 -9z m-700 -230 c0 -5 -7 -10 -15 -10 -8 0 -15 5 -15 10 0 6 7 10
15 10 8 0 15 -4 15 -10z m361 -158 c19 -33 25 -51 15 -43 -10 8 -26 31 -36 50
-23 44 -27 17 -5 -36 20 -47 13 -54 -9 -9 -24 50 -29 89 -21 143 l8 48 8 -48
c4 -26 22 -73 40 -105z m849 68 c14 -26 5 -57 -21 -71 -46 -24 -93 24 -64 67
20 31 69 33 85 4z m-3433 -54 c4 -8 26 -28 48 -45 51 -38 161 -141 275 -256
98 -99 103 -104 142 -156 l27 -36 -22 -12 c-54 -30 -197 -247 -181 -273 4 -6
2 -8 -3 -5 -6 4 -14 -3 -18 -16 -4 -12 -8 -25 -10 -29 -1 -5 -3 -15 -4 -24 0
-8 -5 -13 -10 -9 -5 3 -13 0 -17 -6 -4 -7 -3 -9 3 -6 13 8 24 -28 12 -40 -5
-5 -10 -29 -11 -55 -2 -25 -6 -44 -10 -41 -18 10 -11 -166 7 -194 10 -15 11
-23 4 -23 -7 0 -9 -10 -5 -27 4 -18 3 -23 -2 -15 -7 10 -11 2 -15 -26 -4 -21
-16 -47 -27 -57 -28 -25 -25 -38 8 -30 26 6 26 5 -10 -27 -21 -18 -38 -39 -38
-46 0 -6 -3 -11 -7 -11 -21 3 -31 -3 -36 -21 -3 -11 -17 -24 -31 -30 -14 -5
-26 -14 -26 -19 0 -10 -30 -29 -92 -56 -21 -10 -38 -21 -38 -26 0 -5 -8 -9
-17 -9 -10 0 -63 -23 -117 -50 -54 -28 -109 -50 -121 -50 -13 0 -26 -7 -29
-16 -4 -9 -9 -14 -13 -10 -4 3 -16 -3 -27 -13 -24 -23 -121 -63 -130 -54 -3 4
-6 1 -6 -6 0 -8 -8 -11 -20 -8 -11 3 -20 1 -20 -4 0 -4 -19 -8 -42 -8 -56 0
-118 -8 -125 -15 -4 -3 -12 -1 -20 6 -11 8 -17 7 -27 -8 -8 -10 -12 -23 -8
-28 3 -5 -2 -6 -12 -3 -10 4 -22 7 -27 7 -4 0 -6 7 -3 15 5 11 2 13 -10 9 -14
-5 -21 -30 -17 -56 0 -5 -4 -8 -10 -8 -6 0 -9 -9 -6 -20 3 -11 1 -23 -4 -26
-5 -3 -9 -19 -9 -36 0 -17 -2 -29 -6 -26 -3 3 -7 46 -8 94 -5 108 -14 204 -26
264 -16 78 2 152 32 134 4 -3 8 3 8 12 0 14 -3 15 -12 6 -16 -16 -33 -15 -19
1 6 8 8 17 4 21 -4 4 1 4 10 0 10 -3 17 -3 16 2 -3 21 2 24 22 13 21 -11 22
-9 16 19 -5 26 0 37 38 77 25 25 45 56 45 68 0 16 3 18 12 9 15 -15 38 2 38
28 0 10 7 21 16 24 8 3 12 10 9 16 -3 6 4 10 18 10 23 0 45 26 32 38 -3 3 -5
0 -5 -6 0 -7 -4 -12 -10 -12 -11 0 -9 42 2 50 4 4 9 22 10 42 2 20 7 36 12 35
5 -1 11 4 13 11 3 6 0 12 -7 12 -6 0 -8 5 -4 12 4 6 9 30 10 52 1 23 5 60 9
84 4 25 2 42 -4 42 -15 0 -8 70 8 80 8 4 12 17 8 29 -3 12 -1 21 5 21 6 0 8 8
5 19 -5 21 10 54 23 46 4 -3 19 12 31 32 13 21 46 65 74 98 83 100 120 147
124 157 2 6 11 18 20 28 28 31 51 64 51 75 1 5 14 21 30 35 17 13 30 29 30 35
0 6 8 18 18 26 31 28 72 79 72 89 0 6 7 13 15 16 8 4 15 13 15 22 0 8 3 12 7
9 10 -11 43 24 43 45 0 11 4 17 9 13 5 -3 12 -1 16 5 9 14 23 12 32 -4z m4212
-103 c24 -30 20 -58 -11 -85 -59 -52 -136 34 -83 92 26 29 69 26 94 -7z
m-1379 -59 c-29 -77 1 -158 75 -202 35 -21 37 -23 11 -17 -45 10 -73 33 -96
79 -24 50 -26 96 -5 136 19 37 28 39 15 4z m281 5 c17 -33 -3 -69 -39 -69 -33
0 -52 16 -52 45 0 29 19 45 52 45 18 0 31 -7 39 -21z m1464 -49 c56 -61 -32
-152 -98 -100 -53 42 -23 120 46 120 21 0 41 -8 52 -20z m-1045 -46 c-26 -68
-4 -152 57 -210 25 -25 38 -44 30 -44 -24 0 -66 39 -88 82 -23 44 -28 143 -9
177 15 29 21 26 10 -5z m242 -31 c22 -20 23 -51 1 -75 -32 -36 -103 -12 -103
35 0 49 64 75 102 40z m-1172 -13 c24 -24 25 -38 4 -68 -18 -26 -50 -28 -76
-5 -25 22 -23 59 4 77 30 21 44 20 68 -4z m2105 -26 c22 -13 35 -24 28 -24 -6
0 -25 -11 -41 -25 l-29 -25 -19 48 c-11 26 -21 51 -23 56 -5 12 38 -3 84 -30z
m-2324 -101 c13 -16 12 -17 -3 -4 -10 7 -18 15 -18 17 0 8 8 3 21 -13z m749
-23 c-60 -117 14 -227 146 -218 53 3 70 -4 38 -16 -9 -3 -37 -6 -63 -6 -53 0
-99 25 -135 73 -30 40 -29 120 2 170 31 49 38 47 12 -3z m260 -20 c23 -23 25
-42 9 -73 -15 -28 -28 -37 -58 -37 -35 0 -61 28 -61 66 0 57 69 85 110 44z
m587 2 c-24 -26 -38 -72 -39 -124 0 -59 35 -124 86 -159 42 -28 48 -46 9 -25
-98 54 -138 157 -98 253 15 35 42 73 53 73 3 0 -2 -8 -11 -18z m1095 -39 c20
-18 24 -63 6 -81 -20 -20 -65 -14 -82 10 -21 30 -20 44 4 68 24 24 47 25 72 3z
m-2271 -14 c47 -47 -3 -129 -71 -114 -35 8 -62 52 -52 87 12 47 87 63 123 27z
m1347 -6 c51 -43 24 -123 -40 -123 -67 0 -94 78 -42 119 33 26 55 26 82 4z
m525 -41 c24 -22 22 -76 -5 -102 -60 -56 -158 18 -113 87 29 43 78 50 118 15z
m-218 -75 c-29 -71 -11 -168 43 -230 28 -31 3 -31 -26 1 -35 37 -57 108 -50
160 6 42 36 118 43 110 3 -3 -2 -21 -10 -41z m669 -159 c9 -12 16 -30 16 -39
0 -27 -39 -69 -66 -69 -53 0 -84 72 -47 112 23 26 78 24 97 -4z m191 -100 c5
-4 0 -8 -12 -8 -17 0 -28 11 -43 42 -26 55 -26 55 12 11 18 -21 37 -41 43 -45z
m-2463 35 c20 -18 24 -63 6 -81 -20 -20 -76 -15 -88 7 -15 29 -12 49 10 71 24
24 47 25 72 3z m796 -19 c4 -29 -28 -41 -45 -18 -10 13 -10 21 -1 31 16 19 42
12 46 -13z m1572 -50 c0 -6 -6 -17 -14 -23 -8 -7 -18 -26 -21 -42 -6 -28 -8
-29 -24 -15 -17 15 -16 19 8 70 22 47 28 52 39 38 6 -9 12 -21 12 -28z m-1112
-80 c47 -53 9 -133 -64 -134 -58 0 -101 69 -73 119 31 55 95 62 137 15z m-937
-41 c25 -32 40 -64 34 -73 -4 -6 -26 -10 -50 -10 -34 0 -47 5 -55 19 -14 28
-13 38 10 61 25 25 43 25 61 3z m1501 -70 c24 -21 23 -45 -2 -68 -29 -27 -74
-10 -78 28 -6 52 41 76 80 40z m500 -30 c24 -21 23 -58 -2 -83 -24 -24 -38
-25 -68 -4 -26 18 -29 60 -5 86 20 22 51 23 75 1z m-6443 -18 c29 -15 140
-135 124 -135 -4 0 -3 -4 4 -8 23 -15 61 -81 94 -163 18 -46 36 -88 40 -94 7
-11 17 -63 24 -135 15 -150 18 -187 17 -200 0 -8 -3 -61 -5 -117 -9 -177 -57
-278 -161 -336 -79 -44 -158 -22 -228 63 -27 32 -48 61 -48 64 0 4 -21 36 -47
71 -62 83 -93 133 -93 148 0 7 -10 28 -23 47 -33 51 -94 199 -101 246 -4 22
-11 56 -16 75 -16 55 -12 181 6 220 9 19 25 52 36 75 40 82 128 157 218 185
42 13 130 10 159 -6z m6775 -11 c25 -24 20 -69 -10 -93 -34 -27 -50 -26 -79 4
-30 29 -31 45 -4 79 24 30 69 35 93 10z m-1866 -116 c18 -18 14 -46 -7 -58
-38 -20 -71 13 -51 51 12 21 40 25 58 7z m327 -113 c0 -23 -5 -31 -21 -33 -30
-4 -48 21 -34 48 18 33 55 23 55 -15z m975 5 c24 -24 26 -77 3 -102 -38 -42
-123 -9 -123 49 0 61 78 95 120 53z m469 -31 c57 -20 62 -89 9 -118 -35 -18
-68 -11 -91 21 -18 24 -19 30 -7 58 7 18 23 36 34 40 12 5 21 9 22 9 1 1 16
-4 33 -10z m-1119 -63 c0 -25 -15 -37 -37 -28 -14 4 -18 34 -6 45 3 4 15 7 25
7 12 0 18 -7 18 -24z m-530 -116 c0 -5 -7 -10 -15 -10 -8 0 -15 5 -15 10 0 6
7 10 15 10 8 0 15 -4 15 -10z m-2270 -75 c0 -12 -19 -12 -23 0 -4 9 -1 12 9 8
7 -3 14 -7 14 -8z m2528 -24 c8 -4 12 -19 10 -32 -4 -29 -45 -34 -61 -7 -19
30 19 60 51 39z m1332 -90 c16 -31 12 -49 -14 -66 -44 -29 -91 18 -66 65 14
27 65 27 80 1z m-6190 -101 c0 -5 -4 -10 -10 -10 -5 0 -10 5 -10 10 0 6 5 10
10 10 6 0 10 -4 10 -10z m-83 -227 c-3 -10 -5 -4 -5 12 0 17 2 24 5 18 2 -7 2
-21 0 -30z m-20 -65 c-3 -8 -6 -5 -6 6 -1 11 2 17 5 13 3 -3 4 -12 1 -19z
m2964 -215 c13 -16 12 -17 -3 -4 -10 7 -18 15 -18 17 0 8 8 3 21 -13z m50 -40
c12 -10 36 -30 53 -44 17 -14 45 -35 62 -47 17 -12 57 -53 89 -92 32 -39 80
-88 108 -111 65 -52 100 -97 41 -54 -21 16 -73 59 -114 95 -41 37 -90 79 -108
96 -40 35 -166 174 -158 174 3 0 15 -8 27 -17z m485 -444 c3 -6 -5 -3 -20 6
-14 10 -26 19 -26 22 0 7 39 -17 46 -28z m85 -66 c13 -16 12 -17 -3 -4 -10 7
-18 15 -18 17 0 8 8 3 21 -13z m-816 -14 c11 -17 -1 -21 -15 -4 -8 9 -8 15 -2
15 6 0 14 -5 17 -11z m45 -50 c0 -6 -4 -7 -10 -4 -5 3 -10 11 -10 16 0 6 5 7
10 4 6 -3 10 -11 10 -16z m90 -81 c0 -6 -6 -5 -15 2 -8 7 -15 14 -15 16 0 2 7
1 15 -2 8 -4 15 -11 15 -16z"/>
<path d="M6486 8953 c-9 -30 -8 -185 2 -238 11 -62 19 -82 46 -120 12 -16 30
-47 41 -68 22 -42 42 -63 51 -54 9 9 -4 54 -21 71 -8 8 -15 26 -15 41 0 14 -9
38 -20 53 -20 27 -28 88 -35 252 -2 67 -5 75 -23 78 -13 2 -22 -4 -26 -15z"/>
<path d="M7081 8436 c-14 -17 3 -58 50 -117 16 -20 29 -41 29 -47 0 -5 16 -33
35 -61 19 -28 35 -54 35 -58 0 -11 56 -92 88 -129 30 -34 43 -53 72 -106 11
-20 24 -39 30 -43 18 -11 10 52 -10 78 -11 14 -20 31 -21 39 -1 14 -14 37 -71
121 -21 31 -38 65 -38 76 0 12 -3 21 -7 21 -5 0 -24 27 -42 60 -19 33 -39 60
-43 60 -4 0 -8 7 -8 15 0 9 -6 18 -13 21 -7 2 -24 22 -37 44 -27 44 -32 47
-49 26z"/>
<path d="M6882 8382 c-18 -12 21 -79 84 -145 27 -28 61 -67 75 -87 14 -19 42
-51 61 -71 19 -20 41 -49 49 -65 27 -54 73 -129 103 -169 17 -22 34 -44 38
-50 5 -5 26 -32 48 -60 22 -27 40 -52 40 -55 0 -4 14 -17 31 -29 l31 -23 -7
23 c-5 13 -28 48 -51 77 -24 30 -44 58 -44 63 0 6 -31 58 -68 117 -38 59 -72
119 -75 134 -8 32 -23 49 -154 186 -57 59 -108 119 -114 134 -12 29 -24 34
-47 20z"/>
<path d="M12423 7504 c-7 -18 28 -53 236 -239 97 -87 191 -177 227 -217 6 -7
51 -51 100 -98 90 -87 218 -245 209 -260 -3 -4 2 -13 10 -20 8 -7 15 -18 15
-25 0 -7 7 -18 15 -25 39 -32 -26 140 -67 176 -10 10 -18 25 -18 34 0 9 -11
27 -25 40 -14 13 -25 28 -25 33 0 6 -46 56 -102 112 -57 56 -117 117 -133 136
-17 19 -64 63 -104 99 -41 36 -82 73 -93 83 -10 9 -22 17 -27 17 -5 0 -18 10
-28 23 -10 12 -34 32 -53 44 -19 12 -53 40 -75 62 -43 45 -53 49 -62 25z"/>
<path d="M12720 7055 c-11 -13 -11 -20 0 -39 12 -24 74 -99 117 -143 12 -13
34 -43 49 -68 14 -25 31 -48 38 -53 7 -4 37 -41 67 -82 31 -41 62 -82 70 -90
8 -8 30 -35 49 -60 19 -25 37 -47 40 -50 18 -15 75 -138 71 -153 -3 -15 22
-87 31 -87 7 0 9 10 11 53 1 22 -15 92 -24 102 -4 6 -10 23 -13 39 -3 16 -12
36 -21 46 -8 9 -12 20 -8 23 3 4 -2 16 -13 26 -10 10 -32 36 -49 56 -16 21
-42 52 -57 69 -15 17 -30 41 -33 53 -3 12 -15 33 -28 47 -43 48 -92 108 -107
132 -8 13 -20 24 -28 24 -7 0 -17 10 -22 23 -5 12 -23 35 -39 51 -17 15 -40
44 -53 62 -26 38 -31 40 -48 19z"/>
<path d="M8571 6506 c-14 -17 -6 -28 77 -112 28 -30 52 -57 52 -62 0 -4 22
-32 50 -62 27 -30 55 -66 62 -79 16 -30 40 -60 93 -116 45 -48 61 -69 108
-139 38 -59 61 -72 51 -30 -8 31 -18 51 -57 111 -15 24 -27 46 -27 50 -1 5
-23 33 -50 63 -28 30 -58 71 -68 90 -9 19 -29 49 -44 65 -70 78 -88 100 -88
107 0 5 -7 8 -15 8 -8 0 -15 6 -15 14 0 7 -12 22 -27 31 -15 10 -38 31 -51 46
-27 33 -35 35 -51 15z"/>
<path d="M8711 6157 c-19 -19 -12 -33 39 -78 28 -24 60 -62 72 -84 11 -22 30
-48 41 -57 11 -10 17 -18 13 -18 -17 0 60 -115 137 -204 74 -86 95 -106 107
-106 22 0 -15 72 -52 100 -4 3 -14 22 -22 41 -8 20 -22 42 -32 50 -22 18 -67
89 -71 112 -5 31 -57 108 -109 160 -63 64 -110 97 -123 84z"/>
<path d="M13502 5493 c-12 -23 -36 -58 -53 -78 -18 -20 -29 -39 -25 -42 15
-16 110 116 104 144 -3 13 -10 7 -26 -24z"/>
<path d="M9238 5352 c-13 -9 -26 -21 -30 -26 -4 -6 -8 -7 -8 -2 0 5 -7 3 -15
-4 -9 -8 -13 -21 -10 -34 5 -15 4 -17 -3 -8 -7 11 -10 10 -16 -3 -3 -9 -10
-13 -16 -10 -5 3 -10 -1 -10 -9 0 -9 5 -16 10 -16 6 0 10 -9 10 -20 0 -11 4
-20 8 -20 4 0 14 -16 21 -36 13 -35 134 -164 155 -164 6 0 16 -8 23 -19 14
-22 114 -93 197 -140 33 -18 65 -39 72 -46 7 -7 66 -38 131 -69 65 -32 126
-62 136 -67 22 -12 194 -79 217 -84 8 -2 51 -17 95 -33 44 -16 100 -35 125
-42 25 -7 56 -16 69 -22 14 -5 68 -18 120 -30 53 -11 114 -24 136 -30 22 -5
60 -13 85 -18 25 -4 56 -11 70 -14 64 -14 148 -23 178 -20 17 2 32 0 32 -5 0
-10 34 -8 92 4 20 5 28 4 24 -3 -4 -7 2 -9 16 -6 46 11 117 13 123 4 3 -6 11
-10 16 -10 6 0 7 5 3 11 -5 8 -2 9 10 2 10 -5 37 -7 61 -3 24 4 42 4 40 0 -2
-4 15 -7 38 -8 37 -2 78 6 274 48 23 5 58 16 78 25 21 8 47 15 59 15 11 0 35
7 51 16 17 9 38 18 49 20 10 2 26 10 36 19 9 8 22 15 29 15 8 0 11 6 7 16 -3
8 -2 13 3 10 12 -8 71 63 77 93 3 15 9 35 13 46 4 11 7 47 5 80 -6 195 -99
321 -269 368 -67 18 -231 21 -292 5 -21 -5 -54 -13 -73 -18 -19 -4 -44 -11
-55 -14 -125 -35 -259 -37 -430 -8 -93 16 -166 21 -328 22 -114 0 -213 3 -220
5 -6 2 -30 7 -52 9 -22 3 -58 8 -80 11 -226 29 -437 72 -565 117 -47 16 -98
33 -115 37 -16 5 -43 14 -60 21 -26 10 -78 26 -160 47 -52 13 -164 10 -187 -5z
m-61 -114 c-3 -8 -6 -5 -6 6 -1 11 2 17 5 13 3 -3 4 -12 1 -19z m2620 -124
c-3 -3 -12 -4 -19 -1 -8 3 -5 6 6 6 11 1 17 -2 13 -5z m-1144 -21 c-7 -2 -21
-2 -30 0 -10 3 -4 5 12 5 17 0 24 -2 18 -5z m154 1 c-3 -3 -12 -4 -19 -1 -8 3
-5 6 6 6 11 1 17 -2 13 -5z m426 -51 c-7 -2 -21 -2 -30 0 -10 3 -4 5 12 5 17
0 24 -2 18 -5z"/>
<path d="M12918 5098 c-13 -13 -37 -30 -54 -38 -16 -8 -35 -23 -42 -33 -25
-33 -67 -68 -89 -73 -13 -4 -23 -9 -23 -13 0 -4 -12 -14 -27 -23 -16 -9 -53
-39 -83 -67 -30 -28 -61 -50 -68 -51 -10 0 -10 -5 -1 -22 6 -13 13 -24 14 -26
7 -7 60 28 99 64 6 6 23 17 36 24 38 20 150 112 191 156 19 22 51 53 70 70 50
43 55 54 26 54 -13 0 -35 -10 -49 -22z"/>
<path d="M6116 6793 c-6 -14 -5 -15 5 -6 7 7 10 15 7 18 -3 3 -9 -2 -12 -12z"/>
<path d="M6085 6680 c-3 -5 -1 -10 4 -10 6 0 11 5 11 10 0 6 -2 10 -4 10 -3 0
-8 -4 -11 -10z"/>
<path d="M6938 6593 c7 -3 16 -2 19 1 4 3 -2 6 -13 5 -11 0 -14 -3 -6 -6z"/>
<path d="M5789 5938 c-5 -15 -4 -50 1 -53 3 -2 6 9 6 26 0 24 -3 37 -7 27z"/>
<path d="M5321 6260 c-24 -4 -49 -13 -55 -21 -6 -8 -22 -20 -36 -28 -14 -7
-37 -28 -52 -46 -22 -26 -25 -35 -15 -43 10 -9 26 0 67 33 57 46 114 64 166
51 55 -14 194 -194 194 -253 0 -17 20 -17 21 0 2 21 -2 41 -16 72 -7 17 -16
44 -20 60 -5 28 -40 71 -113 138 -35 34 -80 45 -141 37z"/>
<path d="M5194 5586 c-4 -9 6 -40 20 -70 14 -29 26 -57 26 -63 0 -5 9 -18 21
-29 12 -10 33 -39 47 -64 28 -49 100 -130 115 -130 6 0 15 -7 21 -15 6 -8 33
-18 60 -21 43 -6 48 -5 44 12 -2 12 -16 21 -41 27 -20 5 -37 13 -37 18 0 5 -6
9 -13 9 -7 0 -21 14 -30 30 -10 17 -22 30 -27 30 -4 0 -17 16 -29 35 -11 20
-25 41 -31 48 -6 6 -24 30 -40 52 -16 22 -35 46 -40 53 -6 7 -18 28 -25 47
-17 40 -33 52 -41 31z"/>
<path d="M3950 2195 l0 -555 329 0 329 0 16 69 c9 39 16 81 16 95 l0 26 -220
0 -220 0 0 460 0 460 -125 0 -125 0 0 -555z"/>
<path d="M4938 2429 c-31 -4 -72 -12 -90 -17 l-33 -8 -3 -83 -3 -84 33 7 c141
29 290 29 354 0 31 -15 64 -68 64 -103 0 -15 -6 -17 -52 -10 -230 33 -415 -35
-463 -170 -43 -123 11 -244 134 -298 72 -32 186 -46 269 -33 75 12 109 28 161
76 l39 34 32 -50 c31 -48 34 -50 77 -50 l44 0 -3 293 -3 292 -29 53 c-46 82
-106 121 -228 146 -82 17 -206 19 -300 5z m322 -482 c0 -42 -43 -111 -80 -129
-40 -20 -112 -23 -159 -7 -61 21 -65 104 -8 140 26 16 51 19 140 19 105 0 107
0 107 -23z"/>
<path d="M6029 2422 c-31 -11 -85 -36 -119 -57 l-63 -38 -33 39 c-18 21 -33
42 -34 47 0 4 -22 7 -50 7 l-50 0 0 -535 0 -535 120 0 120 0 0 159 0 160 47
-21 c66 -29 196 -28 276 2 158 60 248 250 218 465 -20 143 -92 250 -200 298
-64 28 -162 32 -232 9z m128 -178 c47 -29 57 -60 61 -183 5 -129 -6 -186 -42
-228 -22 -26 -30 -28 -94 -28 -131 0 -161 49 -161 271 l-1 142 53 20 c83 33
138 35 184 6z"/>
<path d="M6830 2435 c-8 -2 -50 -9 -92 -16 l-78 -12 0 -85 0 -84 28 5 c93 20
213 28 281 19 90 -13 118 -34 134 -103 l7 -26 -148 1 c-132 0 -153 -2 -206
-23 -113 -45 -175 -127 -176 -232 0 -155 129 -251 339 -252 109 0 178 22 233
74 23 21 42 38 43 37 55 -86 69 -98 112 -98 l43 0 0 275 c0 251 -2 279 -20
329 -21 56 -80 120 -137 149 -65 34 -280 58 -363 42z m275 -502 c-10 -56 -36
-96 -75 -115 -67 -34 -190 -15 -205 31 -12 38 5 81 38 102 26 16 51 19 141 19
l108 0 -7 -37z"/>
<path d="M7880 2422 c-31 -10 -85 -35 -120 -56 l-64 -38 -39 46 c-37 43 -42
46 -88 46 l-49 0 2 -532 3 -533 123 -3 122 -3 0 156 c0 85 2 155 4 155 2 0 23
-7 47 -16 58 -21 200 -21 257 0 103 37 184 127 218 241 25 85 23 229 -5 318
-58 181 -237 277 -411 219z m130 -181 c47 -33 55 -65 55 -211 0 -118 -3 -139
-21 -170 -25 -43 -56 -60 -114 -60 -65 0 -111 26 -137 80 -21 40 -23 59 -23
191 l0 146 40 18 c80 36 153 38 200 6z"/>
<path d="M8670 2434 c-14 -3 -55 -9 -92 -15 l-68 -11 0 -85 0 -85 33 6 c155
32 305 29 360 -8 30 -21 64 -87 52 -105 -2 -5 -30 -4 -62 1 -135 22 -301 -9
-382 -73 -77 -61 -105 -200 -58 -289 48 -90 166 -143 322 -143 78 0 100 4 154
28 34 16 73 41 87 58 14 16 26 28 28 26 1 -2 17 -25 35 -51 30 -45 35 -48 76
-48 l45 0 0 268 c0 324 -5 348 -84 428 -71 70 -146 95 -306 99 -63 2 -126 2
-140 -1z m285 -501 c-16 -89 -70 -133 -163 -133 -57 0 -106 19 -116 45 -17 44
6 98 48 115 11 5 70 9 130 9 l108 1 -7 -37z"/>
<path d="M10430 2433 c-14 -2 -55 -8 -92 -14 l-68 -11 0 -85 0 -85 28 5 c153
33 332 28 374 -10 19 -17 48 -72 48 -91 0 -5 -66 -8 -147 -8 -133 0 -154 -2
-207 -23 -113 -45 -175 -127 -176 -232 0 -153 128 -250 335 -252 113 -1 181
21 237 74 23 21 42 38 43 37 1 -2 16 -24 34 -50 30 -45 35 -48 76 -48 l45 0 0
275 c0 250 -2 279 -20 328 -36 96 -115 155 -242 181 -70 15 -205 19 -268 9z
m285 -500 c-16 -89 -70 -133 -163 -133 -91 0 -134 39 -118 105 12 48 58 65
180 65 l108 0 -7 -37z"/>
<path d="M11790 2422 c-83 -23 -139 -59 -189 -122 -60 -76 -76 -133 -76 -276
0 -119 0 -121 38 -197 75 -152 225 -222 422 -197 212 27 330 170 329 400 0
151 -43 254 -138 329 -90 72 -257 99 -386 63z m232 -201 c35 -39 50 -97 51
-192 0 -165 -60 -240 -181 -226 -36 4 -53 12 -78 40 -75 81 -72 307 5 381 55
53 154 52 203 -3z"/>
<path d="M12785 2416 c-38 -13 -92 -35 -118 -50 -54 -30 -49 -32 -93 32 -13
18 -26 22 -65 22 l-49 0 0 -390 0 -390 120 0 120 0 2 288 3 287 45 22 c48 24
98 29 220 23 l75 -3 3 85 c3 82 2 86 -20 92 -52 14 -174 5 -243 -18z"/>
<path d="M13375 2433 c-123 -27 -205 -108 -247 -246 -17 -56 -19 -86 -16 -175
6 -131 29 -199 95 -272 55 -62 119 -96 205 -109 66 -11 171 -1 210 20 29 16
34 3 18 -44 -10 -26 -27 -50 -50 -65 -34 -23 -39 -24 -180 -18 -80 3 -162 9
-183 12 l-38 6 3 -83 3 -84 60 -12 c33 -7 110 -15 170 -19 225 -13 375 52 441
191 l24 50 0 418 0 417 -42 0 c-39 0 -47 -5 -83 -46 l-40 -46 -60 37 c-99 59
-211 86 -290 68z m223 -195 l52 -20 0 -147 c0 -132 -2 -151 -22 -191 -27 -53
-73 -80 -136 -80 -100 0 -133 50 -140 210 -2 62 0 122 7 147 29 106 106 132
239 81z"/>
<path d="M9300 2408 c0 -7 15 -60 34 -118 19 -58 62 -193 96 -300 34 -107 73
-230 86 -272 l26 -78 54 0 c30 0 54 -2 54 -5 0 -17 -33 -66 -60 -89 -29 -24
-39 -26 -121 -26 l-89 0 0 -84 0 -83 46 -7 c144 -19 260 9 334 83 26 26 61 76
78 112 28 59 282 840 282 867 0 9 -34 12 -124 12 l-125 0 -14 -52 c-9 -29 -43
-159 -77 -288 -34 -129 -65 -239 -69 -243 -4 -4 -25 59 -46 140 -20 81 -50
195 -65 253 -16 58 -33 124 -39 148 l-12 42 -124 0 c-93 0 -125 -3 -125 -12z"/>
<path d="M11223 1880 c-17 -6 -43 -24 -57 -41 -21 -25 -26 -41 -26 -86 0 -49
4 -59 34 -89 34 -34 58 -40 131 -36 77 5 118 47 119 123 1 52 -17 92 -51 114
-30 20 -108 27 -150 15z"/>
<path d="M10098 1204 c-17 -5 -18 -29 -18 -324 0 -281 2 -319 16 -324 28 -11
225 -6 265 6 49 14 114 69 138 117 71 139 47 376 -46 462 -57 54 -89 63 -218
65 -66 2 -128 0 -137 -2z m246 -46 c55 -17 110 -74 131 -137 13 -39 16 -77 13
-159 -4 -130 -28 -188 -97 -237 -40 -28 -49 -30 -152 -33 l-109 -4 0 291 0
291 86 0 c48 0 105 -6 128 -12z"/>
<path d="M15008 1203 c-17 -4 -18 -28 -18 -324 0 -312 0 -319 20 -319 20 0 20
7 20 325 0 179 -1 324 -2 324 -2 -1 -11 -3 -20 -6z"/>
<path d="M10671 1170 c-19 -11 -9 -45 14 -45 13 0 21 8 23 21 3 23 -17 37 -37
24z"/>
<path d="M13491 1170 c-19 -11 -9 -45 14 -45 13 0 21 8 23 21 3 23 -17 37 -37
24z"/>
<path d="M11867 1152 c-19 -21 -23 -42 -5 -24 16 16 67 15 98 -3 35 -20 84
-19 103 3 19 21 23 42 5 24 -16 -16 -58 -15 -101 3 -48 20 -80 19 -100 -3z"/>
<path d="M10905 1005 c-54 -19 -75 -47 -75 -100 0 -32 6 -48 26 -69 23 -22
105 -56 138 -56 28 0 84 -22 104 -40 24 -22 29 -68 12 -101 -24 -44 -115 -63
-222 -46 -40 7 -48 6 -48 -8 0 -24 43 -35 133 -35 131 0 190 44 191 141 1 46
-2 54 -33 79 -22 19 -62 35 -122 50 -95 24 -139 49 -139 81 0 61 55 85 172 75
73 -6 79 -5 76 11 -6 32 -141 43 -213 18z"/>
<path d="M11385 1001 c-52 -23 -101 -80 -116 -133 -16 -61 -8 -165 17 -212 11
-22 37 -54 58 -70 35 -28 45 -31 125 -34 97 -4 155 7 159 30 3 13 -11 15 -110
10 -112 -5 -114 -4 -146 23 -36 30 -56 64 -67 112 l-6 33 168 2 168 3 3 45
c11 153 -119 252 -253 191z m135 -34 c39 -20 70 -74 70 -123 l0 -44 -145 0
c-80 0 -145 3 -145 8 0 24 25 90 42 112 42 53 123 75 178 47z"/>
<path d="M11897 1005 c-21 -8 -52 -24 -68 -36 -26 -18 -33 -19 -40 -8 -5 8 -9
19 -9 26 0 6 -4 15 -10 18 -7 4 -10 -72 -10 -219 0 -219 1 -226 20 -226 19 0
20 7 20 169 l0 169 31 26 c87 74 196 75 239 4 18 -30 20 -51 20 -200 l0 -168
26 0 26 0 -4 173 c-3 187 -11 216 -69 259 -34 25 -122 32 -172 13z"/>
<path d="M12384 1009 c-141 -41 -170 -339 -42 -431 28 -19 45 -23 113 -23 68
0 85 4 113 23 46 33 74 94 80 173 14 195 -99 306 -264 258z m142 -45 c102 -48
111 -287 15 -351 -46 -31 -137 -32 -175 -2 -46 36 -60 76 -61 169 0 67 4 94
21 125 35 69 124 95 200 59z"/>
<path d="M13140 1004 c-83 -36 -114 -95 -115 -219 0 -166 61 -235 206 -235 92
0 119 7 119 30 0 16 -8 17 -86 12 -72 -4 -93 -2 -121 14 -50 26 -75 82 -76
168 -2 160 67 224 216 199 55 -9 58 -8 55 11 -2 14 -13 23 -33 27 -54 12 -129
9 -165 -7z"/>
<path d="M13809 1006 c-20 -7 -50 -23 -67 -35 l-32 -22 -14 33 c-13 30 -14 13
-15 -194 -1 -222 0 -228 19 -228 19 0 20 7 20 174 l0 173 38 26 c49 34 85 47
133 47 32 0 39 3 39 20 0 17 -7 20 -42 20 -24 -1 -59 -7 -79 -14z"/>
<path d="M14125 1001 c-47 -21 -69 -44 -89 -91 -35 -87 -28 -222 16 -286 37
-53 84 -74 169 -74 91 0 119 7 119 29 0 15 -10 17 -89 13 -79 -4 -94 -2 -124
17 -47 29 -67 82 -67 179 0 86 17 133 62 165 33 24 118 33 171 19 36 -10 38
-10 35 11 -2 15 -12 24 -33 28 -59 13 -130 9 -170 -10z"/>
<path d="M15250 1011 c-46 -9 -60 -18 -60 -38 0 -11 6 -14 23 -9 49 14 154 18
195 7 53 -15 82 -57 82 -120 0 -40 -2 -43 -22 -37 -13 4 -59 9 -103 12 -70 5
-85 3 -124 -18 -61 -31 -84 -66 -84 -123 0 -86 62 -135 171 -135 74 0 120 17
150 55 25 32 25 32 40 -15 8 -28 10 3 9 152 -2 172 -4 189 -23 215 -11 15 -34
34 -50 42 -33 16 -152 23 -204 12z m194 -227 l46 -7 0 -45 c0 -55 -27 -102
-73 -127 -26 -13 -49 -17 -102 -13 -59 4 -71 8 -91 32 -44 51 -25 123 40 152
34 14 107 18 180 8z"/>
<path d="M15794 996 c-28 -13 -55 -29 -58 -35 -12 -19 -23 -12 -34 22 -7 24
-10 -22 -11 -195 -1 -221 0 -228 19 -228 19 0 20 8 22 177 l3 177 49 31 c39
24 61 30 103 30 48 0 53 2 51 20 -5 31 -79 32 -144 1z"/>
<path d="M10673 1003 c-10 -3 -13 -58 -13 -224 l0 -219 25 0 25 0 -2 222 c-3
217 -6 233 -35 221z"/>
<path d="M13497 997 c-16 -11 -17 -33 -15 -222 3 -209 3 -210 26 -213 l22 -3
0 225 c0 124 -4 226 -8 226 -5 0 -16 -6 -25 -13z"/>
<path d="M14467 1004 c-11 -12 -8 -295 4 -339 22 -80 81 -119 173 -113 47 3
74 11 113 35 l51 32 11 -30 c5 -16 12 -29 15 -29 4 0 6 101 6 225 0 218 -1
225 -20 225 -19 0 -20 -7 -20 -175 l0 -175 -47 -30 c-87 -56 -160 -57 -212 -5
-26 25 -26 28 -31 203 -4 149 -7 177 -20 180 -9 1 -19 0 -23 -4z"/>
</g>
</svg>
